<?xml version="1.0" encoding="utf-8"?>
<!-- Generator: Adobe Illustrator 15.0.2, SVG Export Plug-In . SVG Version: 6.00 Build 0)  -->
<!DOCTYPE svg PUBLIC "-//W3C//DTD SVG 1.1//EN" "http://www.w3.org/Graphics/SVG/1.1/DTD/svg11.dtd">
<svg version="1.1" id="Layer_1" xmlns="http://www.w3.org/2000/svg" xmlns:xlink="http://www.w3.org/1999/xlink" x="0px" y="0px"
	 width="32px" height="32px" viewBox="0 0 32 32" enable-background="new 0 0 32 32" xml:space="preserve">
<g>
	<path fill-rule="evenodd" clip-rule="evenodd" fill="#2E3436" d="M27.441,17.076c-2.918-2.856-6.912-5.29-11.317-5.29
		c-4.326,0-8.105,2.221-11.008,4.985l2.061,3.11c2.293-2.283,5.455-3.694,8.946-3.694c3.562,0,6.781,1.469,9.085,3.833
		L27.441,17.076z"/>
	<path fill-rule="evenodd" clip-rule="evenodd" fill="#2E3436" d="M22.807,22.572c-1.625-1.812-4.059-3.551-6.683-3.551
		c-2.661,0-4.898,1.619-6.524,3.475l2.354,2.799c1.007-1.174,2.5-1.917,4.167-1.917c1.835,0,3.462,0.902,4.457,2.287L22.807,22.572z
		"/>
	<path fill-rule="evenodd" clip-rule="evenodd" fill="#2E3436" d="M16.031,26.157c1.057,0,1.475,1.047,1.475,2.104l-1.475,1.807
		c0,0-1.396-1.663-1.529-1.865C14.501,27.146,14.974,26.157,16.031,26.157z"/>
	<path fill-rule="evenodd" clip-rule="evenodd" fill="#2E3436" d="M31.779,11.243c-4.137-3.672-9.672-6.496-15.654-6.496
		c-5.971,0-11.568,2.889-15.702,6.546l2.358,2.998c3.516-3.22,8.199-5.035,13.343-5.035c5.135,0,9.815,1.81,13.329,5.021
		L31.779,11.243z"/>
</g>
</svg>
