<?xml version="1.0" encoding="utf-8"?>
<!-- Generator: Adobe Illustrator 15.0.2, SVG Export Plug-In . SVG Version: 6.00 Build 0)  -->
<!DOCTYPE svg PUBLIC "-//W3C//DTD SVG 1.1//EN" "http://www.w3.org/Graphics/SVG/1.1/DTD/svg11.dtd">
<svg version="1.1" id="Layer_1" xmlns="http://www.w3.org/2000/svg" xmlns:xlink="http://www.w3.org/1999/xlink" x="0px" y="0px"
	 width="32px" height="32px" viewBox="0 0 32 32" enable-background="new 0 0 32 32" xml:space="preserve">
<g>
	<g>
		<path fill="#D1D1D2" d="M15.999,30.73C7.876,30.73,1.268,24.123,1.268,16S7.876,1.268,15.999,1.268S30.73,7.877,30.73,16
			S24.122,30.73,15.999,30.73z"/>
		<path fill="#C1C1C1" d="M15.999,1.518C23.984,1.518,30.48,8.015,30.48,16c0,7.984-6.496,14.48-14.481,14.48
			C8.014,30.48,1.518,23.984,1.518,16C1.518,8.015,8.014,1.518,15.999,1.518 M15.999,1.018C7.725,1.018,1.018,7.726,1.018,16
			c0,8.273,6.707,14.98,14.981,14.98c8.274,0,14.981-6.707,14.981-14.98C30.98,7.726,24.273,1.018,15.999,1.018L15.999,1.018z"/>
	</g>
</g>
<path fill="#A9A9AA" d="M15.981,2.019c8.103,0,14.686,6.436,14.957,14.473c0.006-0.171,0.025-0.338,0.025-0.51
	C30.964,7.708,24.256,1,15.981,1S1,7.708,1,15.982c0,0.172,0.02,0.339,0.025,0.51C1.297,8.455,7.879,2.019,15.981,2.019z"/>
<path fill="#FFFFFF" d="M16,30.98c-8.103,0-14.686-6.437-14.957-14.474c-0.006,0.173-0.025,0.339-0.025,0.511
	C1.018,25.293,7.726,32,16,32c8.275,0,14.982-6.707,14.982-14.982c0-0.172-0.021-0.338-0.025-0.51
	C30.686,24.545,24.104,30.98,16,30.98z"/>
<g>
	<path fill-rule="evenodd" clip-rule="evenodd" fill="#2E3436" d="M25.554,10.967v-0.869c-0.271-0.522-0.735-0.677-1.26-0.557
		c-0.509,0.116-1.027,0.267-1.483,0.512c-0.902,0.485-1.773,1.034-2.642,1.583c-0.257,0.163-0.458,0.191-0.741,0.065
		c-1.53-0.679-3.071-1.335-4.606-2.003c-1.684-0.732-3.365-1.469-5.047-2.204H9.611C9.049,7.828,8.487,8.161,7.901,8.51
		c2.641,1.952,5.262,3.89,7.885,5.829c-0.037,0.043-0.049,0.068-0.07,0.081c-1.757,1.096-3.512,2.193-5.277,3.274
		c-0.105,0.064-0.31,0.041-0.435-0.015c-0.789-0.356-1.563-0.744-2.355-1.093c-0.153-0.067-0.379-0.05-0.544,0.008
		c-0.313,0.108-0.607,0.274-0.91,0.416v0.163c0.725,0.728,1.462,1.443,2.167,2.188c0.193,0.204,0.346,0.481,0.424,0.751
		c0.281,0.969,0.521,1.948,0.791,2.975c0.301-0.174,0.545-0.343,0.812-0.462c0.3-0.135,0.397-0.356,0.422-0.663
		c0.067-0.809,0.16-1.147,0.227-1.957c0.02-0.241,0.112-0.38,0.333-0.491c1.726-0.872,3.445-1.509,5.167-2.389
		c0.102-0.053,0.211-0.09,0.355-0.15c0.314,3.296,0.625,5.82,0.934,9.064h0.082c0.483-0.296,0.977-0.577,1.445-0.896
		c0.146-0.101,0.287-0.291,0.316-0.461c0.115-0.666,0.184-1.34,0.274-2.011c0.368-2.749,0.742-5.278,1.101-8.029
		c0.034-0.262,0.148-0.396,0.363-0.523c0.898-0.528,1.773-1.096,2.68-1.61C24.74,12.139,25.288,11.693,25.554,10.967"/>
</g>
</svg>
