<?xml version="1.0" encoding="utf-8"?>
<!-- Generator: Adobe Illustrator 15.0.2, SVG Export Plug-In . SVG Version: 6.00 Build 0)  -->
<!DOCTYPE svg PUBLIC "-//W3C//DTD SVG 1.1//EN" "http://www.w3.org/Graphics/SVG/1.1/DTD/svg11.dtd">
<svg version="1.1" id="Layer_1" xmlns="http://www.w3.org/2000/svg" xmlns:xlink="http://www.w3.org/1999/xlink" x="0px" y="0px"
	 width="32px" height="32px" viewBox="0 0 32 32" enable-background="new 0 0 32 32" xml:space="preserve">
<g>
	<path fill-rule="evenodd" clip-rule="evenodd" fill="#2E3436" d="M30.529,31H19.446c0,0-1.446-0.502-1.446-1.606V4.569
		C18,3.465,18.463,3,19.567,3h10.813C31.485,3,32,3.421,32,4.525v24.889C32,29.414,31.634,31,30.529,31z M22,7h-2v4h2V7z M22,13h-2
		v4h2V13z M22,19h-2v4h2V19z M22,25h-2v4h2V25z M26,7h-2v4h2V7z M26,13h-2v4h2V13z M26,19h-2v4h2V19z M30,7h-2v4h2V7z M30,13h-2v4h2
		V13z M30,19h-2v4h2V19z M30,25h-2v4h2V25z M14.423,31H3.611C2.507,31,2,30.481,2,29.377V10.536C2,9.432,2.56,9,3.664,9h10.683
		C15.451,9,16,9.441,16,10.546v18.866C16,30.517,15.528,31,14.423,31z M6,13H4v4h2V13z M6,19H4v4h2V19z M6,25H4v4h2V25z M10,13H8v4
		h2V13z M10,19H8v4h2V19z M14,13h-2v4h2V13z M14,19h-2v4h2V19z M14,25h-2v4h2V25z"/>
</g>
</svg>
