<?xml version="1.0" encoding="utf-8"?>
<!-- Generator: Adobe Illustrator 15.0.2, SVG Export Plug-In . SVG Version: 6.00 Build 0)  -->
<!DOCTYPE svg PUBLIC "-//W3C//DTD SVG 1.1//EN" "http://www.w3.org/Graphics/SVG/1.1/DTD/svg11.dtd">
<svg version="1.1" id="Layer_1" xmlns="http://www.w3.org/2000/svg" xmlns:xlink="http://www.w3.org/1999/xlink" x="0px" y="0px"
	 width="32px" height="32px" viewBox="0 0 32 32" enable-background="new 0 0 32 32" xml:space="preserve">
<g>
	<path fill-rule="evenodd" clip-rule="evenodd" fill="#2E3436" d="M30.962,31.999H2.07V18.512v-1.553
		c0-1.521,1.102-2.923,2.721-2.923H5.01V8.77c0-4.807,4.352-8.769,9.159-8.769h4.827c4.807,0,8.984,3.962,8.984,8.769v5.266h0.493
		c1.621,0,2.488,1.304,2.488,2.923l0.024,1.553L30.962,31.999z M21.995,7.939c0-1.67-1.166-2.923-2.836-2.923h-5.23
		c-1.67,0-2.923,1.253-2.923,2.923v6.097h10.989V7.939z"/>
</g>
</svg>
