<?xml version="1.0" encoding="utf-8"?>
<!-- Generator: Adobe Illustrator 15.0.2, SVG Export Plug-In . SVG Version: 6.00 Build 0)  -->
<!DOCTYPE svg PUBLIC "-//W3C//DTD SVG 1.1//EN" "http://www.w3.org/Graphics/SVG/1.1/DTD/svg11.dtd">
<svg version="1.1" id="Layer_1" xmlns="http://www.w3.org/2000/svg" xmlns:xlink="http://www.w3.org/1999/xlink" x="0px" y="0px"
	 width="32px" height="32px" viewBox="0 0 32 32" enable-background="new 0 0 32 32" xml:space="preserve">
<g>
	<path fill="#2E3436" d="M15.054,32.018V19.814l-4.472,4.402c-0.598,0.588-1.561,0.582-2.149-0.018
		c-0.59-0.598-0.582-1.561,0.017-2.15l6.131-6.036l-6.14-6.14c-0.594-0.595-0.594-1.557,0-2.151c0.594-0.593,1.556-0.593,2.15,0
		l4.463,4.463V-0.018l10.586,9.41l-6.742,6.638l6.744,6.743L15.054,32.018L15.054,32.018z M18.096,19.527v5.799l3.096-2.703
		L18.096,19.527L18.096,19.527z M18.096,6.753v5.801l3.096-3.048L18.096,6.753L18.096,6.753z"/>
</g>
</svg>
