<?xml version="1.0" encoding="utf-8"?>
<!-- Generator: Adobe Illustrator 15.0.2, SVG Export Plug-In . SVG Version: 6.00 Build 0)  -->
<!DOCTYPE svg PUBLIC "-//W3C//DTD SVG 1.1//EN" "http://www.w3.org/Graphics/SVG/1.1/DTD/svg11.dtd">
<svg version="1.1" id="Layer_1" xmlns="http://www.w3.org/2000/svg" xmlns:xlink="http://www.w3.org/1999/xlink" x="0px" y="0px"
	 width="32px" height="32px" viewBox="0 0 32 32" enable-background="new 0 0 32 32" xml:space="preserve">
<g>
	<path fill="#2E3436" d="M5.641,2.001C3.61,2.001,2,3.61,2,5.642v20.716c0,2.031,1.609,3.641,3.641,3.641h20.717
		c2.029,0,3.641-1.609,3.641-3.641V5.642c0-2.031-1.611-3.641-3.641-3.641H5.641z M5.979,6.969h6.613
		c0.975,0.023,2.421,0.895,2.397,1.87c-0.006,0.253-0.066,0.502-0.178,0.73l-2.427,4.91c0.625,0.204,1.322,0.345,1.71,0.771
		c0.587,0.646,0.938,1.431,0.938,2.373v4.34c0,1.963-1.602,3.01-3.53,3.01H5.979v-3.01h5.961v-4.98H9.312
		c-0.976-0.025-1.746-0.568-1.723-1.542c0.006-0.254,0.066-0.503,0.178-0.73l2.206-4.742H5.979V6.969z M20.632,6.961h2.605h0.109
		c0.006,0-0.004,0.056,0,0.056c0.932-0.036,1.832,0.134,2.586,0.827c0.73,0.672,1.049,1.778,0.994,2.813h0.055v0.221l-0.031,1.105
		h-3v-1.826v-0.11V9.992c-0.031-0.003,0.006-0.003-0.055,0h-0.055h-0.055h-3.686c-0.047,0-0.037,0.003-0.055,0
		c-0.01,0.007-0.051-0.005-0.055,0c-0.012,0.04,0.014,0.082,0,0.11v0.055v11.694c-0.041-0.037,0,0.111,0,0.111h3.951
		c0.012-0.035,0.051-0.027,0.055,0c0.002,0.014,0-0.098,0-0.055V17.99h-2.016v-2.998h2.967h2.047v1.765v4.714
		c0,0.992-0.398,1.764-0.992,2.426c-0.559,0.625-1.504,1.115-2.594,1.104v0.057h-0.164h-2.723c-1.104,0-1.756-0.426-2.373-0.994
		c-0.584-0.537-1.136-1.395-1.103-2.537c0-0.004-0.055,0.004-0.055,0v-0.166V10.602v-0.166v-0.11
		c0.111-0.772,0.363-1.57,0.993-2.262C18.616,7.372,19.655,6.961,20.632,6.961L20.632,6.961z"/>
</g>
</svg>
