<?xml version="1.0" encoding="utf-8"?>
<!-- Generator: Adobe Illustrator 15.0.2, SVG Export Plug-In . SVG Version: 6.00 Build 0)  -->
<!DOCTYPE svg PUBLIC "-//W3C//DTD SVG 1.1//EN" "http://www.w3.org/Graphics/SVG/1.1/DTD/svg11.dtd">
<svg version="1.1" id="Layer_1" xmlns="http://www.w3.org/2000/svg" xmlns:xlink="http://www.w3.org/1999/xlink" x="0px" y="0px"
	 width="32px" height="32px" viewBox="0 0 32 32" enable-background="new 0 0 32 32" xml:space="preserve">
<g>
	<g>
		<path fill-rule="evenodd" clip-rule="evenodd" fill="#FF5058" d="M15.999,30.731C7.876,30.731,1.268,24.123,1.268,16
			S7.876,1.268,15.999,1.268S30.731,7.877,30.731,16S24.122,30.731,15.999,30.731z"/>
		<path fill="#DD4752" d="M15.999,1.518c7.985,0,14.482,6.497,14.482,14.482s-6.497,14.481-14.482,14.481
			C8.014,30.481,1.518,23.985,1.518,16S8.014,1.518,15.999,1.518 M15.999,1.018C7.725,1.018,1.018,7.726,1.018,16
			s6.707,14.981,14.981,14.981S30.981,24.274,30.981,16S24.273,1.018,15.999,1.018L15.999,1.018z"/>
	</g>
</g>
<path fill="#C53E44" d="M15.981,2.019c8.103,0,14.686,6.436,14.957,14.473c0.006-0.171,0.025-0.338,0.025-0.51
	C30.964,7.708,24.256,1,15.981,1S1,7.708,1,15.982c0,0.172,0.02,0.339,0.025,0.51C1.297,8.455,7.879,2.019,15.981,2.019z"/>
<path fill="#FFFFFF" d="M16,30.981c-8.103,0-14.686-6.437-14.957-14.474c-0.006,0.172-0.025,0.338-0.025,0.51
	C1.018,25.293,7.726,32,16,32c8.275,0,14.982-6.707,14.982-14.982c0-0.172-0.02-0.338-0.025-0.51
	C30.686,24.545,24.104,30.981,16,30.981z"/>
</svg>
