<?xml version="1.0" encoding="utf-8"?>
<!-- Generator: Adobe Illustrator 15.0.2, SVG Export Plug-In . SVG Version: 6.00 Build 0)  -->
<!DOCTYPE svg PUBLIC "-//W3C//DTD SVG 1.1//EN" "http://www.w3.org/Graphics/SVG/1.1/DTD/svg11.dtd">
<svg version="1.1" id="Layer_1" xmlns="http://www.w3.org/2000/svg" xmlns:xlink="http://www.w3.org/1999/xlink" x="0px" y="0px"
	 width="32px" height="32px" viewBox="0 0 32 32" enable-background="new 0 0 32 32" xml:space="preserve">
<g>
	<path fill="#14A9EF" d="M16,30.5c-7.985,0-14.481-6.496-14.481-14.481C1.518,8.033,8.015,1.536,16,1.536
		c7.986,0,14.483,6.497,14.483,14.482C30.482,24.004,23.985,30.5,16,30.5z M15.926,3.493c-6.854,0-12.43,5.576-12.43,12.429
		c0,4.486,2.439,8.643,6.365,10.846l0.568,0.319l0.736-2.881l-0.309-0.193c-2.806-1.766-4.481-4.79-4.481-8.091
		c0-5.266,4.285-9.551,9.551-9.551s9.55,4.285,9.55,9.551c0,3.258-1.641,6.26-4.388,8.031l-0.304,0.195l0.747,2.886l0.568-0.327
		c3.858-2.218,6.255-6.351,6.255-10.785C28.355,9.069,22.779,3.493,15.926,3.493z M15.926,8.08c-4.325,0-7.843,3.518-7.843,7.842
		c0,2.37,1.061,4.591,2.91,6.092l0.606,0.492l0.79-3.097l-0.176-0.198c-0.807-0.909-1.251-2.078-1.251-3.289
		c0-2.737,2.227-4.964,4.964-4.964c2.736,0,4.962,2.227,4.962,4.964c0,1.175-0.421,2.316-1.186,3.213l-0.169,0.198l0.81,3.113
		l0.606-0.507c1.79-1.499,2.817-3.692,2.817-6.018C23.768,11.598,20.25,8.08,15.926,8.08z M15.926,12.51
		c-1.881,0-3.412,1.531-3.412,3.412c0,1.882,1.531,3.412,3.412,3.412s3.412-1.53,3.412-3.412
		C19.338,14.041,17.808,12.51,15.926,12.51z"/>
	<path fill="#13A0D8" d="M16,2.036c7.71,0,13.983,6.272,13.983,13.982C29.982,23.728,23.71,30,16,30
		C8.29,30,2.018,23.728,2.018,16.019C2.018,8.309,8.29,2.036,16,2.036 M10.752,27.842l0.322-1.263l0.484-1.896l0.181-0.705
		l-0.617-0.389c-2.659-1.673-4.247-4.539-4.247-7.667c0-4.991,4.06-9.051,9.051-9.051s9.05,4.06,9.05,9.051
		c0,3.087-1.555,5.932-4.159,7.61l-0.607,0.392l0.182,0.7l0.492,1.9l0.329,1.27l1.137-0.653c4.013-2.308,6.506-6.606,6.506-11.219
		c0-7.129-5.8-12.929-12.929-12.929s-12.93,5.8-12.93,12.929c0,4.667,2.537,8.99,6.62,11.282L10.752,27.842 M11.891,23.386
		l0.386-1.514l0.531-2.082l0.131-0.514l-0.352-0.396c-0.726-0.818-1.125-1.869-1.125-2.958c0-2.461,2.002-4.464,4.464-4.464
		c2.46,0,4.462,2.002,4.462,4.464c0,1.057-0.379,2.082-1.065,2.889l-0.338,0.396l0.131,0.505l0.545,2.097l0.397,1.529l1.212-1.015
		c1.904-1.594,2.997-3.927,2.997-6.4c0-4.6-3.742-8.342-8.341-8.342c-4.6,0-8.343,3.742-8.343,8.342
		c0,2.521,1.128,4.883,3.094,6.479L11.891,23.386 M15.926,19.834c2.157,0,3.912-1.755,3.912-3.912s-1.755-3.912-3.912-3.912
		c-2.157,0-3.912,1.755-3.912,3.912S13.769,19.834,15.926,19.834 M16,1.036c-8.274,0-14.981,6.708-14.981,14.982S7.725,31,16,31
		c8.274,0,14.983-6.707,14.983-14.981S24.273,1.036,16,1.036L16,1.036z M10.106,26.332c-3.643-2.045-6.109-5.944-6.109-10.41
		c0-6.577,5.352-11.929,11.93-11.929c6.578,0,11.929,5.352,11.929,11.929c0,4.423-2.42,8.291-6.004,10.352l-0.492-1.9
		c2.775-1.789,4.617-4.909,4.617-8.451c0-5.542-4.508-10.051-10.05-10.051c-5.542,0-10.051,4.509-10.051,10.051
		c0,3.583,1.885,6.733,4.715,8.514L10.106,26.332L10.106,26.332z M11.308,21.625c-1.66-1.348-2.725-3.403-2.725-5.703
		c0-4.049,3.294-7.342,7.343-7.342c4.048,0,7.341,3.293,7.341,7.342c0,2.262-1.027,4.285-2.639,5.634l-0.545-2.097
		c0.812-0.953,1.305-2.188,1.305-3.537c0-3.013-2.449-5.464-5.462-5.464c-3.013,0-5.464,2.451-5.464,5.464
		c0,1.389,0.521,2.656,1.377,3.621L11.308,21.625L11.308,21.625z M15.926,18.834c-1.608,0-2.912-1.304-2.912-2.912
		s1.304-2.912,2.912-2.912c1.609,0,2.912,1.304,2.912,2.912S17.535,18.834,15.926,18.834L15.926,18.834z"/>
</g>
<path fill="#1088C0" d="M15.981,2.019c8.103,0,14.686,6.436,14.957,14.473c0.006-0.171,0.025-0.338,0.025-0.51
	C30.964,7.708,24.256,1,15.981,1S1,7.708,1,15.982c0,0.172,0.02,0.339,0.025,0.51C1.297,8.455,7.879,2.019,15.981,2.019z"/>
<path fill="#FFFFFF" d="M16,30.981c-8.103,0-14.686-6.437-14.957-14.474c-0.006,0.172-0.025,0.338-0.025,0.51
	C1.018,25.293,7.726,32,16,32c8.275,0,14.982-6.707,14.982-14.982c0-0.172-0.02-0.338-0.025-0.51
	C30.686,24.545,24.104,30.981,16,30.981z"/>
</svg>
