<?xml version="1.0" encoding="utf-8"?>
<!-- Generator: Adobe Illustrator 15.0.2, SVG Export Plug-In . SVG Version: 6.00 Build 0)  -->
<!DOCTYPE svg PUBLIC "-//W3C//DTD SVG 1.1//EN" "http://www.w3.org/Graphics/SVG/1.1/DTD/svg11.dtd">
<svg version="1.1" id="Layer_1" xmlns="http://www.w3.org/2000/svg" xmlns:xlink="http://www.w3.org/1999/xlink" x="0px" y="0px"
	 width="32px" height="32px" viewBox="0 0 32 32" enable-background="new 0 0 32 32" xml:space="preserve">
<g>
	<path fill="#2E3436" d="M27.747,19.23c-0.271,0.975-0.67,1.895-1.161,2.754c0.022,0.028,2.681,3.334,1.074,4.938l-0.793,0.793
		c-1.192,1.192-4.183-0.68-4.89-1.15c-0.908,0.509-1.888,0.908-2.92,1.172l0.207,0.006c0,0-0.564,4.257-2.847,4.257h-0.782
		c-1.737,0-2.706-3.646-2.874-4.334c-1.023-0.288-1.991-0.706-2.887-1.235l0.158,0.168c0,0-3.369,2.649-4.981,1.037l-0.713-0.594
		c-1.229-1.23,0.765-4.496,1.149-5.099c-0.476-0.841-0.864-1.737-1.131-2.688c-0.669-0.162-4.341-1.132-4.341-2.875v-0.783
		c0-2.015,3.501-2.689,4.319-2.82c0.264-0.957,0.649-1.861,1.124-2.708C5.096,9.514,3.021,6.234,4.263,4.992l0.753-0.633
		c1.423-1.423,4.341,0.601,5.01,1.098c0.858-0.492,1.779-0.89,2.753-1.162c0.216-0.854,1.18-4.264,2.857-4.264h0.782
		c1.956,0,2.647,3.297,2.808,4.24c0.987,0.268,1.922,0.663,2.793,1.156c0.728-0.475,3.773-2.342,4.965-1.151l0.714,0.753
		c1.394,1.393-0.546,4.217-1.103,4.963c0.491,0.861,0.889,1.784,1.157,2.761c0.249,0.035,4.231,0.633,4.231,2.843v0.783
		C31.985,18.044,28.638,19.005,27.747,19.23z M15.978,11.023c-2.743,0-4.967,2.225-4.967,4.968c0,2.744,2.224,5.037,4.967,5.037
		c2.744,0,5.072-2.293,5.072-5.037C21.05,13.248,18.722,11.023,15.978,11.023z"/>
</g>
</svg>
